<mxfile host="Electron" modified="2025-02-24T23:52:36.750Z" agent="Mozilla/5.0 (Windows NT 10.0; Win64; x64) AppleWebKit/537.36 (KHTML, like Gecko) draw.io/24.6.4 Chrome/124.0.6367.207 Electron/30.0.6 Safari/537.36" etag="f-w9usVJMSAx3VLl2ddU" version="24.6.4" type="device" pages="2">
  <diagram name="Page-1" id="90a13364-a465-7bf4-72fc-28e22215d7a0">
    <mxGraphModel dx="-4040.5" dy="-359" grid="1" gridSize="10" guides="1" tooltips="1" connect="1" arrows="1" fold="1" page="1" pageScale="1.5" pageWidth="1169" pageHeight="826" background="none" math="0" shadow="0">
      <root>
        <mxCell id="0" style=";html=1;" />
        <mxCell id="1" style=";html=1;" parent="0" />
        <mxCell id="hAiypM93y2llB4UHlgx6-99" value="&lt;span style=&quot;font-size: 20px;&quot;&gt;&lt;b&gt;&amp;nbsp; &amp;nbsp; Microservices&lt;/b&gt;&lt;/span&gt;" style="shape=cube;whiteSpace=wrap;html=1;boundedLbl=1;backgroundOutline=1;darkOpacity=0.05;darkOpacity2=0.1;align=left;verticalAlign=top;shadow=0;gradientColor=#FFFFFF;fillColor=#FFF2CC;gradientDirection=radial;strokeWidth=2;" vertex="1" parent="1">
          <mxGeometry x="11580" y="2150" width="1320" height="190.75" as="geometry" />
        </mxCell>
        <mxCell id="RIICJhG-7CiGIXrUGHWG-11" value="&lt;span style=&quot;font-size: 20px;&quot;&gt;&lt;b&gt;&amp;nbsp; Monolith Frontend&lt;/b&gt;&lt;/span&gt;" style="shape=cube;whiteSpace=wrap;html=1;boundedLbl=1;backgroundOutline=1;darkOpacity=0.05;darkOpacity2=0.1;align=left;verticalAlign=top;shadow=0;gradientColor=#FFFFFF;fillColor=#FFF2CC;gradientDirection=radial;strokeWidth=2;" parent="1" vertex="1">
          <mxGeometry x="5630" y="1828" width="560" height="280" as="geometry" />
        </mxCell>
        <mxCell id="RIICJhG-7CiGIXrUGHWG-14" value="&lt;font style=&quot;font-size: 16px;&quot;&gt;«Pages»&lt;br style=&quot;&quot;&gt;&lt;b&gt;Customer Management&lt;/b&gt;&lt;/font&gt;" style="html=1;dropTarget=0;whiteSpace=wrap;fontSize=9;rounded=1;align=center;verticalAlign=middle;fontFamily=Helvetica;fillColor=#f9f7ed;fontColor=default;strokeColor=#36393d;" parent="1" vertex="1">
          <mxGeometry x="5919" y="1989.75" width="210" height="80" as="geometry" />
        </mxCell>
        <mxCell id="RIICJhG-7CiGIXrUGHWG-15" value="&lt;font style=&quot;font-size: 16px;&quot;&gt;«Pages»&lt;br style=&quot;&quot;&gt;&lt;b&gt;Cart Management&lt;/b&gt;&lt;/font&gt;" style="html=1;dropTarget=0;whiteSpace=wrap;fontSize=9;rounded=1;align=center;verticalAlign=middle;fontFamily=Helvetica;fillColor=#f9f7ed;fontColor=default;strokeColor=#36393d;" parent="1" vertex="1">
          <mxGeometry x="5692" y="1989.75" width="210" height="80" as="geometry" />
        </mxCell>
        <mxCell id="RIICJhG-7CiGIXrUGHWG-16" value="&lt;font style=&quot;font-size: 16px;&quot;&gt;«Pages»&lt;br style=&quot;&quot;&gt;&lt;b&gt;Payment Management&lt;/b&gt;&lt;/font&gt;" style="html=1;dropTarget=0;whiteSpace=wrap;fontSize=9;rounded=1;align=center;verticalAlign=middle;fontFamily=Helvetica;fillColor=#f9f7ed;fontColor=default;strokeColor=#36393d;" parent="1" vertex="1">
          <mxGeometry x="5919" y="1898" width="210" height="80" as="geometry" />
        </mxCell>
        <mxCell id="RIICJhG-7CiGIXrUGHWG-17" value="&lt;font style=&quot;font-size: 16px;&quot;&gt;«Pages»&lt;br style=&quot;&quot;&gt;&lt;b&gt;Catalog Product Management&lt;/b&gt;&lt;/font&gt;" style="html=1;dropTarget=0;whiteSpace=wrap;fontSize=9;rounded=1;align=center;verticalAlign=middle;fontFamily=Helvetica;fillColor=#f9f7ed;strokeColor=#36393d;" parent="1" vertex="1">
          <mxGeometry x="5692" y="1898" width="210" height="80" as="geometry" />
        </mxCell>
        <mxCell id="RIICJhG-7CiGIXrUGHWG-33" value="&lt;span style=&quot;font-size: 20px;&quot;&gt;&lt;b&gt;&amp;nbsp; &amp;nbsp;Microservices&lt;/b&gt;&lt;/span&gt;" style="shape=cube;whiteSpace=wrap;html=1;boundedLbl=1;backgroundOutline=1;darkOpacity=0.05;darkOpacity2=0.1;align=left;verticalAlign=top;shadow=0;gradientColor=#FFFFFF;fillColor=#FFF2CC;gradientDirection=radial;strokeWidth=2;" parent="1" vertex="1">
          <mxGeometry x="5639.25" y="2198" width="560" height="280" as="geometry" />
        </mxCell>
        <mxCell id="RIICJhG-7CiGIXrUGHWG-36" value="&lt;font style=&quot;font-size: 16px;&quot;&gt;«Microservice»&lt;br style=&quot;&quot;&gt;&lt;b&gt;Customer Management&lt;/b&gt;&lt;/font&gt;" style="html=1;dropTarget=0;whiteSpace=wrap;fontSize=9;rounded=1;align=center;verticalAlign=middle;fontFamily=Helvetica;fillColor=#f9f7ed;fontColor=default;strokeColor=#36393d;" parent="1" vertex="1">
          <mxGeometry x="5923.75" y="2363.87" width="210" height="80" as="geometry" />
        </mxCell>
        <mxCell id="RIICJhG-7CiGIXrUGHWG-37" value="&lt;font style=&quot;font-size: 16px;&quot;&gt;«Microservice»&lt;br style=&quot;&quot;&gt;&lt;b&gt;Cart Management&lt;/b&gt;&lt;/font&gt;" style="html=1;dropTarget=0;whiteSpace=wrap;fontSize=9;rounded=1;align=center;verticalAlign=middle;fontFamily=Helvetica;fillColor=#f9f7ed;fontColor=default;strokeColor=#36393d;" parent="1" vertex="1">
          <mxGeometry x="5696.75" y="2363.87" width="210" height="80" as="geometry" />
        </mxCell>
        <mxCell id="RIICJhG-7CiGIXrUGHWG-38" value="&lt;font style=&quot;font-size: 16px;&quot;&gt;«Microservice»&lt;br style=&quot;&quot;&gt;&lt;b&gt;Payment Management&lt;/b&gt;&lt;/font&gt;" style="html=1;dropTarget=0;whiteSpace=wrap;fontSize=9;rounded=1;align=center;verticalAlign=middle;fontFamily=Helvetica;fillColor=#f9f7ed;fontColor=default;strokeColor=#36393d;" parent="1" vertex="1">
          <mxGeometry x="5923.75" y="2272.12" width="210" height="80" as="geometry" />
        </mxCell>
        <mxCell id="RIICJhG-7CiGIXrUGHWG-39" value="&lt;font style=&quot;font-size: 16px;&quot;&gt;«Microservice»&lt;br style=&quot;&quot;&gt;&lt;b&gt;Catalog Product Management&lt;/b&gt;&lt;/font&gt;" style="html=1;dropTarget=0;whiteSpace=wrap;fontSize=9;rounded=1;align=center;verticalAlign=middle;fontFamily=Helvetica;fillColor=#f9f7ed;strokeColor=#36393d;" parent="1" vertex="1">
          <mxGeometry x="5696.75" y="2272.12" width="210" height="80" as="geometry" />
        </mxCell>
        <mxCell id="WQwl6MBHTclcrmutAXiC-1" style="edgeStyle=orthogonalEdgeStyle;rounded=0;orthogonalLoop=1;jettySize=auto;html=1;entryX=0;entryY=0;entryDx=270;entryDy=0;entryPerimeter=0;strokeWidth=3;" parent="1" source="RIICJhG-7CiGIXrUGHWG-11" target="RIICJhG-7CiGIXrUGHWG-33" edge="1">
          <mxGeometry relative="1" as="geometry" />
        </mxCell>
        <mxCell id="hAiypM93y2llB4UHlgx6-7" value="&lt;span style=&quot;font-size: 20px;&quot;&gt;&lt;b&gt;&amp;nbsp;&amp;nbsp;&lt;/b&gt;&lt;/span&gt;&lt;b style=&quot;font-size: 20px;&quot;&gt;Monolith&amp;nbsp;&lt;/b&gt;&lt;span style=&quot;font-size: 20px;&quot;&gt;&lt;b&gt;Frontend&lt;/b&gt;&lt;/span&gt;" style="shape=cube;whiteSpace=wrap;html=1;boundedLbl=1;backgroundOutline=1;darkOpacity=0.05;darkOpacity2=0.1;align=left;verticalAlign=top;shadow=0;gradientColor=#FFFFFF;fillColor=#FFF2CC;gradientDirection=radial;strokeWidth=2;" vertex="1" parent="1">
          <mxGeometry x="6760" y="1942" width="830" height="284.75" as="geometry" />
        </mxCell>
        <mxCell id="hAiypM93y2llB4UHlgx6-29" style="edgeStyle=orthogonalEdgeStyle;rounded=0;orthogonalLoop=1;jettySize=auto;html=1;entryX=0;entryY=0.5;entryDx=0;entryDy=0;strokeWidth=3;dashed=1;strokeColor=default;align=center;verticalAlign=middle;fontFamily=Helvetica;fontSize=11;fontColor=default;labelBackgroundColor=default;endArrow=classic;" edge="1" parent="1" source="hAiypM93y2llB4UHlgx6-9" target="hAiypM93y2llB4UHlgx6-13">
          <mxGeometry relative="1" as="geometry" />
        </mxCell>
        <mxCell id="hAiypM93y2llB4UHlgx6-9" value="&lt;font style=&quot;font-size: 16px;&quot;&gt;«Pages»&lt;br style=&quot;&quot;&gt;&lt;b&gt;Customer Management&lt;/b&gt;&lt;/font&gt;" style="html=1;dropTarget=0;whiteSpace=wrap;fontSize=9;rounded=1;align=center;verticalAlign=middle;fontFamily=Helvetica;fillColor=#F2F2F2;strokeColor=#36393d;fontColor=#000000;dashed=1;strokeWidth=2;" vertex="1" parent="1">
          <mxGeometry x="7049" y="2108.5" width="210" height="80" as="geometry" />
        </mxCell>
        <mxCell id="hAiypM93y2llB4UHlgx6-10" value="&lt;font style=&quot;font-size: 16px;&quot;&gt;«Pages»&lt;br style=&quot;&quot;&gt;&lt;b&gt;Cart Management&lt;/b&gt;&lt;/font&gt;" style="html=1;dropTarget=0;whiteSpace=wrap;fontSize=9;rounded=1;align=center;verticalAlign=middle;fontFamily=Helvetica;fillColor=#f9f7ed;fontColor=default;strokeColor=#36393d;" vertex="1" parent="1">
          <mxGeometry x="6822" y="2108.5" width="210" height="80" as="geometry" />
        </mxCell>
        <mxCell id="hAiypM93y2llB4UHlgx6-11" value="&lt;font style=&quot;font-size: 16px;&quot;&gt;«Pages»&lt;br style=&quot;&quot;&gt;&lt;b&gt;Payment Management&lt;/b&gt;&lt;/font&gt;" style="html=1;dropTarget=0;whiteSpace=wrap;fontSize=9;rounded=1;align=center;verticalAlign=middle;fontFamily=Helvetica;fillColor=#f9f7ed;fontColor=default;strokeColor=#36393d;" vertex="1" parent="1">
          <mxGeometry x="7049" y="2016.75" width="210" height="80" as="geometry" />
        </mxCell>
        <mxCell id="hAiypM93y2llB4UHlgx6-12" value="&lt;font style=&quot;font-size: 16px;&quot;&gt;«Pages»&lt;br style=&quot;&quot;&gt;&lt;b&gt;Catalog Product Management&lt;/b&gt;&lt;/font&gt;" style="html=1;dropTarget=0;whiteSpace=wrap;fontSize=9;rounded=1;align=center;verticalAlign=middle;fontFamily=Helvetica;fillColor=#f9f7ed;fontColor=default;strokeColor=#36393d;" vertex="1" parent="1">
          <mxGeometry x="6822" y="2016.75" width="210" height="80" as="geometry" />
        </mxCell>
        <mxCell id="hAiypM93y2llB4UHlgx6-13" value="&lt;font style=&quot;font-size: 16px;&quot;&gt;«Anticorruption Layer»&lt;br style=&quot;&quot;&gt;&lt;b&gt;Customer Management Adapter&lt;/b&gt;&lt;/font&gt;" style="html=1;dropTarget=0;whiteSpace=wrap;fontSize=9;rounded=1;align=center;verticalAlign=middle;fontFamily=Helvetica;fillColor=#6d8764;strokeColor=#3A5431;strokeWidth=2;fontColor=#ffffff;" vertex="1" parent="1">
          <mxGeometry x="7356" y="2108.5" width="210" height="80" as="geometry" />
        </mxCell>
        <mxCell id="hAiypM93y2llB4UHlgx6-14" value="&lt;span style=&quot;font-size: 20px;&quot;&gt;&lt;b&gt;&amp;nbsp; &amp;nbsp;Microservice&lt;/b&gt;&lt;/span&gt;" style="shape=cube;whiteSpace=wrap;html=1;boundedLbl=1;backgroundOutline=1;darkOpacity=0.05;darkOpacity2=0.1;align=left;verticalAlign=top;shadow=0;gradientColor=#FFFFFF;fillColor=#FFF2CC;gradientDirection=radial;strokeWidth=2;" vertex="1" parent="1">
          <mxGeometry x="6760" y="2282" width="1280" height="195.75" as="geometry" />
        </mxCell>
        <mxCell id="hAiypM93y2llB4UHlgx6-15" value="&lt;font style=&quot;font-size: 16px;&quot;&gt;«Microservice»&lt;br style=&quot;&quot;&gt;&lt;b&gt;Customer Management&lt;/b&gt;&lt;/font&gt;" style="html=1;dropTarget=0;whiteSpace=wrap;fontSize=9;rounded=1;align=center;verticalAlign=middle;fontFamily=Helvetica;fillColor=#f9f7ed;fontColor=default;strokeColor=#36393d;" vertex="1" parent="1">
          <mxGeometry x="7731" y="2348.75" width="210" height="80" as="geometry" />
        </mxCell>
        <mxCell id="hAiypM93y2llB4UHlgx6-16" value="&lt;font style=&quot;font-size: 16px;&quot;&gt;«Microservice»&lt;br style=&quot;&quot;&gt;&lt;b&gt;Cart Management&lt;/b&gt;&lt;/font&gt;" style="html=1;dropTarget=0;whiteSpace=wrap;fontSize=9;rounded=1;align=center;verticalAlign=middle;fontFamily=Helvetica;fillColor=#f9f7ed;fontColor=default;strokeColor=#36393d;" vertex="1" parent="1">
          <mxGeometry x="6830" y="2348.75" width="210" height="80" as="geometry" />
        </mxCell>
        <mxCell id="hAiypM93y2llB4UHlgx6-17" value="&lt;font style=&quot;font-size: 16px;&quot;&gt;«Microservice»&lt;br style=&quot;&quot;&gt;&lt;b&gt;Payment Management&lt;/b&gt;&lt;/font&gt;" style="html=1;dropTarget=0;whiteSpace=wrap;fontSize=9;rounded=1;align=center;verticalAlign=middle;fontFamily=Helvetica;fillColor=#f9f7ed;fontColor=default;strokeColor=#36393d;" vertex="1" parent="1">
          <mxGeometry x="7428" y="2348.75" width="210" height="80" as="geometry" />
        </mxCell>
        <mxCell id="hAiypM93y2llB4UHlgx6-18" value="&lt;font style=&quot;font-size: 16px;&quot;&gt;«Microservice»&lt;br style=&quot;&quot;&gt;&lt;b&gt;Catalog Product Management&lt;/b&gt;&lt;/font&gt;" style="html=1;dropTarget=0;whiteSpace=wrap;fontSize=9;rounded=1;align=center;verticalAlign=middle;fontFamily=Helvetica;fillColor=#f9f7ed;strokeColor=#36393d;" vertex="1" parent="1">
          <mxGeometry x="7118" y="2348.75" width="210" height="80" as="geometry" />
        </mxCell>
        <mxCell id="hAiypM93y2llB4UHlgx6-24" value="&lt;span style=&quot;font-size: 20px;&quot;&gt;&lt;b&gt;&amp;nbsp; Shell App&lt;/b&gt;&lt;/span&gt;" style="shape=cube;whiteSpace=wrap;html=1;boundedLbl=1;backgroundOutline=1;darkOpacity=0.05;darkOpacity2=0.1;align=left;verticalAlign=top;shadow=0;gradientDirection=radial;strokeWidth=2;strokeColor=default;fontFamily=Helvetica;fontSize=12;fontColor=default;fillColor=#B9E0A5;gradientColor=#FFFFFF;" vertex="1" parent="1">
          <mxGeometry x="7620" y="2037.75" width="415" height="190" as="geometry" />
        </mxCell>
        <mxCell id="hAiypM93y2llB4UHlgx6-25" value="&lt;font style=&quot;font-size: 16px;&quot;&gt;«Microfronted»&lt;br style=&quot;&quot;&gt;&lt;b&gt;Customer Management&lt;/b&gt;&lt;/font&gt;" style="html=1;dropTarget=0;whiteSpace=wrap;fontSize=9;rounded=1;align=center;verticalAlign=middle;fontFamily=Helvetica;fillColor=#6d8764;fontColor=#ffffff;strokeColor=#3A5431;strokeWidth=2;" vertex="1" parent="1">
          <mxGeometry x="7730" y="2109.75" width="210" height="80" as="geometry" />
        </mxCell>
        <object placeholders="1" c4Name="" c4Type="ContainerDiagramTitle" c4Description="" label="&lt;font style=&quot;font-size: 16px&quot;&gt;&lt;b&gt;&lt;div style=&quot;text-align: left&quot;&gt;%c4Name%&lt;/div&gt;&lt;/b&gt;&lt;/font&gt;&lt;div style=&quot;text-align: left&quot;&gt;%c4Description%&lt;/div&gt;" id="hAiypM93y2llB4UHlgx6-27">
          <mxCell style="text;html=1;strokeColor=none;fillColor=none;align=left;verticalAlign=top;whiteSpace=wrap;rounded=0;metaEdit=1;allowArrows=0;resizable=1;rotatable=0;connectable=0;recursiveResize=0;expand=0;pointerEvents=0;points=[[0.25,0,0],[0.5,0,0],[0.75,0,0],[1,0.25,0],[1,0.5,0],[1,0.75,0],[0.75,1,0],[0.5,1,0],[0.25,1,0],[0,0.75,0],[0,0.5,0],[0,0.25,0]];fontFamily=Helvetica;fontSize=12;fontColor=default;" vertex="1" parent="1">
            <mxGeometry x="7620" y="1976.75" width="430" height="45.375" as="geometry" />
          </mxCell>
        </object>
        <mxCell id="hAiypM93y2llB4UHlgx6-30" style="edgeStyle=orthogonalEdgeStyle;rounded=0;orthogonalLoop=1;jettySize=auto;html=1;dashed=1;strokeColor=default;strokeWidth=3;align=center;verticalAlign=middle;fontFamily=Helvetica;fontSize=11;fontColor=default;labelBackgroundColor=default;endArrow=classic;" edge="1" parent="1" source="hAiypM93y2llB4UHlgx6-13" target="hAiypM93y2llB4UHlgx6-25">
          <mxGeometry relative="1" as="geometry" />
        </mxCell>
        <mxCell id="hAiypM93y2llB4UHlgx6-19" style="edgeStyle=orthogonalEdgeStyle;rounded=0;orthogonalLoop=1;jettySize=auto;html=1;strokeWidth=3;strokeColor=default;align=center;verticalAlign=middle;fontFamily=Helvetica;fontSize=11;fontColor=default;labelBackgroundColor=default;endArrow=classic;exitX=0.5;exitY=1;exitDx=0;exitDy=0;dashed=1;" edge="1" parent="1" source="hAiypM93y2llB4UHlgx6-25" target="hAiypM93y2llB4UHlgx6-15">
          <mxGeometry relative="1" as="geometry">
            <mxPoint x="7835.5" y="2225.75" as="sourcePoint" />
          </mxGeometry>
        </mxCell>
        <mxCell id="hAiypM93y2llB4UHlgx6-68" value="&lt;b style=&quot;font-size: 20px;&quot;&gt;&amp;nbsp; Shell App&lt;/b&gt;" style="shape=cube;whiteSpace=wrap;html=1;boundedLbl=1;backgroundOutline=1;darkOpacity=0.05;darkOpacity2=0.1;align=left;verticalAlign=top;shadow=0;gradientColor=#FFFFFF;fillColor=#B9E0A5;gradientDirection=radial;strokeWidth=2;strokeColor=default;fontFamily=Helvetica;fontSize=12;fontColor=default;" vertex="1" parent="1">
          <mxGeometry x="10172.5" y="2044.5" width="960" height="190" as="geometry" />
        </mxCell>
        <mxCell id="hAiypM93y2llB4UHlgx6-72" value="&lt;font style=&quot;font-size: 16px;&quot;&gt;«Microfronted»&lt;br style=&quot;&quot;&gt;&lt;b&gt;Customer Management&lt;/b&gt;&lt;/font&gt;" style="html=1;dropTarget=0;whiteSpace=wrap;fontSize=9;rounded=1;align=center;verticalAlign=middle;fontFamily=Helvetica;fillColor=#6d8764;fontColor=#ffffff;strokeColor=#3A5431;shadow=1;strokeWidth=2;" vertex="1" parent="1">
          <mxGeometry x="10906.18" y="2116.5" width="210" height="80" as="geometry" />
        </mxCell>
        <mxCell id="hAiypM93y2llB4UHlgx6-73" value="&lt;font style=&quot;font-size: 16px;&quot;&gt;«Microfronted»&lt;br style=&quot;&quot;&gt;&lt;b&gt;Cart Management&lt;/b&gt;&lt;/font&gt;" style="html=1;dropTarget=0;whiteSpace=wrap;fontSize=9;rounded=1;align=center;verticalAlign=middle;fontFamily=Helvetica;fillColor=#6d8764;fontColor=#ffffff;strokeColor=#3A5431;shadow=1;strokeWidth=2;" vertex="1" parent="1">
          <mxGeometry x="10442" y="2115.75" width="210" height="85.25" as="geometry" />
        </mxCell>
        <mxCell id="hAiypM93y2llB4UHlgx6-74" value="&lt;font style=&quot;font-size: 16px;&quot;&gt;«Microfronted»&lt;br style=&quot;&quot;&gt;&lt;b&gt;Payment Management&lt;/b&gt;&lt;/font&gt;" style="html=1;dropTarget=0;whiteSpace=wrap;fontSize=9;rounded=1;align=center;verticalAlign=middle;fontFamily=Helvetica;fillColor=#6d8764;fontColor=#ffffff;strokeColor=#3A5431;shadow=1;strokeWidth=2;" vertex="1" parent="1">
          <mxGeometry x="10672.5" y="2116.5" width="210" height="80" as="geometry" />
        </mxCell>
        <mxCell id="hAiypM93y2llB4UHlgx6-75" value="&lt;font style=&quot;font-size: 16px;&quot;&gt;«Microfronted»&lt;br style=&quot;&quot;&gt;&lt;b&gt;Catalog Product Management&lt;/b&gt;&lt;/font&gt;" style="html=1;dropTarget=0;whiteSpace=wrap;fontSize=9;rounded=1;align=center;verticalAlign=middle;fontFamily=Helvetica;fillColor=#6d8764;strokeColor=#3A5431;shadow=1;strokeWidth=2;fontColor=#ffffff;" vertex="1" parent="1">
          <mxGeometry x="10215" y="2115.75" width="210" height="80" as="geometry" />
        </mxCell>
        <mxCell id="hAiypM93y2llB4UHlgx6-76" value="&lt;span style=&quot;font-size: 20px;&quot;&gt;&lt;b&gt;&amp;nbsp; &amp;nbsp;Microservices&lt;/b&gt;&lt;/span&gt;" style="shape=cube;whiteSpace=wrap;html=1;boundedLbl=1;backgroundOutline=1;darkOpacity=0.05;darkOpacity2=0.1;align=left;verticalAlign=top;shadow=0;gradientColor=#FFFFFF;fillColor=#FFF2CC;gradientDirection=radial;strokeWidth=2;" vertex="1" parent="1">
          <mxGeometry x="10170" y="2294.5" width="965" height="190.75" as="geometry" />
        </mxCell>
        <mxCell id="hAiypM93y2llB4UHlgx6-77" value="&lt;span style=&quot;font-size: 16px;&quot;&gt;«Microservice»&lt;/span&gt;&lt;br style=&quot;font-size: 16px;&quot;&gt;&lt;b style=&quot;font-size: 16px;&quot;&gt;Payment Management&lt;/b&gt;" style="html=1;dropTarget=0;whiteSpace=wrap;fontSize=9;rounded=1;align=center;verticalAlign=middle;fontFamily=Helvetica;fillColor=#f9f7ed;fontColor=default;strokeColor=#36393d;" vertex="1" parent="1">
          <mxGeometry x="10673" y="2359.37" width="210" height="80" as="geometry" />
        </mxCell>
        <mxCell id="hAiypM93y2llB4UHlgx6-78" value="&lt;span style=&quot;font-size: 16px;&quot;&gt;«Microservice»&lt;/span&gt;&lt;br style=&quot;font-size: 16px;&quot;&gt;&lt;b style=&quot;font-size: 16px;&quot;&gt;Customer Management&lt;/b&gt;" style="html=1;dropTarget=0;whiteSpace=wrap;fontSize=9;rounded=1;align=center;verticalAlign=middle;fontFamily=Helvetica;fillColor=#f9f7ed;fontColor=default;strokeColor=#36393d;" vertex="1" parent="1">
          <mxGeometry x="10907.32" y="2359.37" width="210" height="80" as="geometry" />
        </mxCell>
        <mxCell id="hAiypM93y2llB4UHlgx6-79" value="&lt;span style=&quot;font-size: 16px;&quot;&gt;«Microservice»&lt;/span&gt;&lt;br style=&quot;font-size: 16px;&quot;&gt;&lt;b style=&quot;font-size: 16px;&quot;&gt;Cart Management&lt;/b&gt;" style="html=1;dropTarget=0;whiteSpace=wrap;fontSize=9;rounded=1;align=center;verticalAlign=middle;fontFamily=Helvetica;fillColor=#f9f7ed;fontColor=default;strokeColor=#36393d;" vertex="1" parent="1">
          <mxGeometry x="10441.75" y="2359.37" width="210" height="80" as="geometry" />
        </mxCell>
        <mxCell id="hAiypM93y2llB4UHlgx6-80" value="&lt;font style=&quot;font-size: 16px;&quot;&gt;«Microservice»&lt;br style=&quot;&quot;&gt;&lt;b&gt;Catalog Product Management&lt;/b&gt;&lt;/font&gt;" style="html=1;dropTarget=0;whiteSpace=wrap;fontSize=9;rounded=1;align=center;verticalAlign=middle;fontFamily=Helvetica;fillColor=#f9f7ed;strokeColor=#36393d;" vertex="1" parent="1">
          <mxGeometry x="10215" y="2359.37" width="210" height="80" as="geometry" />
        </mxCell>
        <mxCell id="hAiypM93y2llB4UHlgx6-94" value="&lt;b style=&quot;font-size: 20px;&quot;&gt;&amp;nbsp; &amp;nbsp;Shell App&lt;/b&gt;" style="shape=cube;whiteSpace=wrap;html=1;boundedLbl=1;backgroundOutline=1;darkOpacity=0.05;darkOpacity2=0.1;align=left;verticalAlign=top;shadow=0;gradientColor=#FFFFFF;fillColor=#FFF2CC;gradientDirection=radial;strokeWidth=2;strokeColor=default;fontFamily=Helvetica;fontSize=12;fontColor=default;" vertex="1" parent="1">
          <mxGeometry x="11582.5" y="1945" width="1317.5" height="190" as="geometry" />
        </mxCell>
        <mxCell id="hAiypM93y2llB4UHlgx6-146" style="edgeStyle=orthogonalEdgeStyle;rounded=0;orthogonalLoop=1;jettySize=auto;html=1;strokeWidth=3;startArrow=classic;startFill=1;dashed=1;" edge="1" parent="1" source="hAiypM93y2llB4UHlgx6-95" target="hAiypM93y2llB4UHlgx6-101">
          <mxGeometry relative="1" as="geometry" />
        </mxCell>
        <mxCell id="hAiypM93y2llB4UHlgx6-95" value="&lt;font style=&quot;font-size: 16px;&quot;&gt;«Microfronted»&lt;br style=&quot;&quot;&gt;&lt;b&gt;Customer Management&lt;/b&gt;&lt;/font&gt;" style="html=1;dropTarget=0;whiteSpace=wrap;fontSize=9;rounded=1;align=center;verticalAlign=middle;fontFamily=Helvetica;fillColor=#6d8764;fontColor=#ffffff;strokeColor=#3A5431;shadow=1;strokeWidth=2;" vertex="1" parent="1">
          <mxGeometry x="12647" y="2018.3700000000001" width="210" height="80" as="geometry" />
        </mxCell>
        <mxCell id="hAiypM93y2llB4UHlgx6-144" style="edgeStyle=orthogonalEdgeStyle;rounded=0;orthogonalLoop=1;jettySize=auto;html=1;startArrow=classic;startFill=1;strokeWidth=3;dashed=1;" edge="1" parent="1" source="hAiypM93y2llB4UHlgx6-96" target="hAiypM93y2llB4UHlgx6-102">
          <mxGeometry relative="1" as="geometry" />
        </mxCell>
        <mxCell id="hAiypM93y2llB4UHlgx6-96" value="&lt;font style=&quot;font-size: 16px;&quot;&gt;«Microfronted»&lt;br style=&quot;&quot;&gt;&lt;b&gt;Cart Management&lt;/b&gt;&lt;/font&gt;" style="html=1;dropTarget=0;whiteSpace=wrap;fontSize=9;rounded=1;align=center;verticalAlign=middle;fontFamily=Helvetica;fillColor=#6d8764;fontColor=#ffffff;strokeColor=#3A5431;shadow=1;strokeWidth=2;" vertex="1" parent="1">
          <mxGeometry x="12022" y="2018.88" width="210" height="85.25" as="geometry" />
        </mxCell>
        <mxCell id="hAiypM93y2llB4UHlgx6-145" style="edgeStyle=orthogonalEdgeStyle;rounded=0;orthogonalLoop=1;jettySize=auto;html=1;startArrow=classic;startFill=1;dashed=1;strokeWidth=3;" edge="1" parent="1" source="hAiypM93y2llB4UHlgx6-97" target="hAiypM93y2llB4UHlgx6-100">
          <mxGeometry relative="1" as="geometry" />
        </mxCell>
        <mxCell id="hAiypM93y2llB4UHlgx6-97" value="&lt;font style=&quot;font-size: 16px;&quot;&gt;«Microfronted»&lt;br style=&quot;&quot;&gt;&lt;b&gt;Payment Management&lt;/b&gt;&lt;/font&gt;" style="html=1;dropTarget=0;whiteSpace=wrap;fontSize=9;rounded=1;align=center;verticalAlign=middle;fontFamily=Helvetica;fillColor=#6d8764;fontColor=#ffffff;strokeColor=#3A5431;shadow=1;strokeWidth=2;" vertex="1" parent="1">
          <mxGeometry x="12330.75" y="2018.3700000000001" width="210" height="80" as="geometry" />
        </mxCell>
        <mxCell id="hAiypM93y2llB4UHlgx6-100" value="&lt;font style=&quot;font-size: 16px;&quot;&gt;«Microservice»&lt;br style=&quot;&quot;&gt;&lt;b&gt;Payment Management&lt;/b&gt;&lt;/font&gt;" style="html=1;dropTarget=0;whiteSpace=wrap;fontSize=9;rounded=1;align=center;verticalAlign=middle;fontFamily=Helvetica;fillColor=#f9f7ed;fontColor=default;strokeColor=#36393d;" vertex="1" parent="1">
          <mxGeometry x="12330.75" y="2214.12" width="210" height="80" as="geometry" />
        </mxCell>
        <mxCell id="hAiypM93y2llB4UHlgx6-101" value="&lt;font style=&quot;font-size: 16px;&quot;&gt;«Microservice»&lt;br style=&quot;&quot;&gt;&lt;b&gt;Customer Management&lt;/b&gt;&lt;/font&gt;" style="html=1;dropTarget=0;whiteSpace=wrap;fontSize=9;rounded=1;align=center;verticalAlign=middle;fontFamily=Helvetica;fillColor=#f9f7ed;fontColor=default;strokeColor=#36393d;" vertex="1" parent="1">
          <mxGeometry x="12647.82" y="2213.6099999999997" width="210" height="80" as="geometry" />
        </mxCell>
        <mxCell id="hAiypM93y2llB4UHlgx6-102" value="&lt;span style=&quot;font-size: 16px;&quot;&gt;«Microservice»&lt;/span&gt;&lt;br style=&quot;font-size: 16px;&quot;&gt;&lt;b style=&quot;font-size: 16px;&quot;&gt;Cart Management&lt;/b&gt;" style="html=1;dropTarget=0;whiteSpace=wrap;fontSize=9;rounded=1;align=center;verticalAlign=middle;fontFamily=Helvetica;fillColor=#f9f7ed;fontColor=default;strokeColor=#36393d;" vertex="1" parent="1">
          <mxGeometry x="12022" y="2215.38" width="210" height="80" as="geometry" />
        </mxCell>
        <mxCell id="hAiypM93y2llB4UHlgx6-143" style="edgeStyle=orthogonalEdgeStyle;rounded=0;orthogonalLoop=1;jettySize=auto;html=1;startArrow=classic;startFill=1;strokeWidth=3;dashed=1;" edge="1" parent="1" source="hAiypM93y2llB4UHlgx6-98" target="hAiypM93y2llB4UHlgx6-103">
          <mxGeometry relative="1" as="geometry" />
        </mxCell>
        <mxCell id="hAiypM93y2llB4UHlgx6-98" value="&lt;font style=&quot;font-size: 16px;&quot;&gt;«Microfronted»&lt;br style=&quot;&quot;&gt;&lt;b&gt;Catalog Product Management&lt;/b&gt;&lt;/font&gt;" style="html=1;dropTarget=0;whiteSpace=wrap;fontSize=9;rounded=1;align=center;verticalAlign=middle;fontFamily=Helvetica;fillColor=#6d8764;strokeColor=#3A5431;shadow=1;strokeWidth=2;fontColor=#ffffff;" vertex="1" parent="1">
          <mxGeometry x="11705" y="2019.63" width="210" height="80" as="geometry" />
        </mxCell>
        <mxCell id="hAiypM93y2llB4UHlgx6-103" value="&lt;font style=&quot;font-size: 16px;&quot;&gt;«Microservice»&lt;br style=&quot;&quot;&gt;&lt;b&gt;Catalog Product Management&lt;/b&gt;&lt;/font&gt;" style="html=1;dropTarget=0;whiteSpace=wrap;fontSize=9;rounded=1;align=center;verticalAlign=middle;fontFamily=Helvetica;fillColor=#f9f7ed;strokeColor=#36393d;" vertex="1" parent="1">
          <mxGeometry x="11705" y="2215.38" width="210" height="80" as="geometry" />
        </mxCell>
        <mxCell id="hAiypM93y2llB4UHlgx6-110" style="edgeStyle=orthogonalEdgeStyle;rounded=0;orthogonalLoop=1;jettySize=auto;html=1;dashed=1;strokeColor=default;strokeWidth=3;align=center;verticalAlign=middle;fontFamily=Helvetica;fontSize=11;fontColor=default;labelBackgroundColor=default;endArrow=classic;exitX=0.5;exitY=1;exitDx=0;exitDy=0;entryX=0.5;entryY=0;entryDx=0;entryDy=0;startArrow=classic;startFill=1;" edge="1" parent="1" source="hAiypM93y2llB4UHlgx6-75" target="hAiypM93y2llB4UHlgx6-80">
          <mxGeometry relative="1" as="geometry">
            <mxPoint x="9797.5" y="2206.5" as="sourcePoint" />
            <mxPoint x="9797.5" y="2369.5" as="targetPoint" />
          </mxGeometry>
        </mxCell>
        <mxCell id="hAiypM93y2llB4UHlgx6-111" style="edgeStyle=orthogonalEdgeStyle;rounded=0;orthogonalLoop=1;jettySize=auto;html=1;dashed=1;strokeColor=default;strokeWidth=3;align=center;verticalAlign=middle;fontFamily=Helvetica;fontSize=11;fontColor=default;labelBackgroundColor=default;endArrow=classic;exitX=0.5;exitY=1;exitDx=0;exitDy=0;startArrow=classic;startFill=1;" edge="1" parent="1" source="hAiypM93y2llB4UHlgx6-73" target="hAiypM93y2llB4UHlgx6-79">
          <mxGeometry relative="1" as="geometry">
            <mxPoint x="10330.5" y="2205.5" as="sourcePoint" />
            <mxPoint x="10330.5" y="2369.5" as="targetPoint" />
          </mxGeometry>
        </mxCell>
        <mxCell id="hAiypM93y2llB4UHlgx6-113" style="edgeStyle=orthogonalEdgeStyle;rounded=0;orthogonalLoop=1;jettySize=auto;html=1;dashed=1;strokeColor=default;strokeWidth=3;align=center;verticalAlign=middle;fontFamily=Helvetica;fontSize=11;fontColor=default;labelBackgroundColor=default;endArrow=classic;startArrow=classic;startFill=1;" edge="1" parent="1" source="hAiypM93y2llB4UHlgx6-74" target="hAiypM93y2llB4UHlgx6-77">
          <mxGeometry relative="1" as="geometry" />
        </mxCell>
        <mxCell id="hAiypM93y2llB4UHlgx6-114" style="edgeStyle=orthogonalEdgeStyle;rounded=0;orthogonalLoop=1;jettySize=auto;html=1;dashed=1;strokeColor=default;strokeWidth=3;align=center;verticalAlign=middle;fontFamily=Helvetica;fontSize=11;fontColor=default;labelBackgroundColor=default;endArrow=classic;startArrow=classic;startFill=1;" edge="1" parent="1" source="hAiypM93y2llB4UHlgx6-72" target="hAiypM93y2llB4UHlgx6-78">
          <mxGeometry relative="1" as="geometry" />
        </mxCell>
        <mxCell id="hAiypM93y2llB4UHlgx6-163" style="edgeStyle=orthogonalEdgeStyle;rounded=0;orthogonalLoop=1;jettySize=auto;html=1;startArrow=classic;startFill=1;strokeWidth=3;" edge="1" parent="1" source="hAiypM93y2llB4UHlgx6-120" target="hAiypM93y2llB4UHlgx6-158">
          <mxGeometry relative="1" as="geometry" />
        </mxCell>
        <mxCell id="hAiypM93y2llB4UHlgx6-120" value="&lt;span style=&quot;font-size: 20px;&quot;&gt;&lt;b&gt;&amp;nbsp;&amp;nbsp;&lt;/b&gt;&lt;/span&gt;&lt;b style=&quot;color: rgb(0, 0, 0); font-size: 20px;&quot;&gt;Monolith&amp;nbsp;&lt;/b&gt;&lt;span style=&quot;font-size: 20px;&quot;&gt;&lt;b&gt;Frontend&lt;/b&gt;&lt;/span&gt;" style="shape=cube;whiteSpace=wrap;html=1;boundedLbl=1;backgroundOutline=1;darkOpacity=0.05;darkOpacity2=0.1;align=left;verticalAlign=top;shadow=0;gradientDirection=radial;strokeWidth=2;fillColor=#f5f5f5;fontColor=#333333;strokeColor=#666666;" vertex="1" parent="1">
          <mxGeometry x="8600" y="1951" width="1050" height="280" as="geometry" />
        </mxCell>
        <mxCell id="hAiypM93y2llB4UHlgx6-121" value="&lt;font style=&quot;font-size: 16px;&quot;&gt;«Pages»&lt;br style=&quot;&quot;&gt;&lt;b&gt;Customer Management&lt;/b&gt;&lt;/font&gt;" style="html=1;dropTarget=0;whiteSpace=wrap;fontSize=9;rounded=1;align=center;verticalAlign=middle;fontFamily=Helvetica;fillColor=#F7F7F7;fontColor=#000000;strokeColor=#36393d;dashed=1;strokeWidth=2;gradientColor=none;shadow=1;" vertex="1" parent="1">
          <mxGeometry x="8900" y="2113" width="210" height="80" as="geometry" />
        </mxCell>
        <mxCell id="hAiypM93y2llB4UHlgx6-122" value="&lt;font style=&quot;font-size: 16px;&quot;&gt;«Pages»&lt;br style=&quot;&quot;&gt;&lt;b&gt;Cart Management&lt;/b&gt;&lt;/font&gt;" style="html=1;dropTarget=0;whiteSpace=wrap;fontSize=9;rounded=1;align=center;verticalAlign=middle;fontFamily=Helvetica;fillColor=#F7F7F7;fontColor=#000000;strokeColor=#36393d;shadow=1;dashed=1;strokeWidth=2;gradientColor=none;" vertex="1" parent="1">
          <mxGeometry x="8897.91" y="2020" width="210" height="85.25" as="geometry" />
        </mxCell>
        <mxCell id="hAiypM93y2llB4UHlgx6-123" value="&lt;font style=&quot;font-size: 16px;&quot;&gt;«Pages»&lt;br style=&quot;&quot;&gt;&lt;b&gt;Payment Management&lt;/b&gt;&lt;/font&gt;" style="html=1;dropTarget=0;whiteSpace=wrap;fontSize=9;rounded=1;align=center;verticalAlign=middle;fontFamily=Helvetica;fillColor=#F7F7F7;fontColor=#000000;strokeColor=#36393d;shadow=1;dashed=1;strokeWidth=2;gradientColor=none;" vertex="1" parent="1">
          <mxGeometry x="8665.32" y="2113" width="210" height="80" as="geometry" />
        </mxCell>
        <mxCell id="hAiypM93y2llB4UHlgx6-124" value="&lt;font style=&quot;font-size: 16px;&quot;&gt;«Pages»&lt;br style=&quot;&quot;&gt;&lt;b&gt;Catalog Product Management&lt;/b&gt;&lt;/font&gt;" style="html=1;dropTarget=0;whiteSpace=wrap;fontSize=9;rounded=1;align=center;verticalAlign=middle;fontFamily=Helvetica;fillColor=#F7F7F7;strokeColor=#36393d;shadow=1;dashed=1;strokeWidth=2;fontColor=#000000;gradientColor=none;" vertex="1" parent="1">
          <mxGeometry x="8662.91" y="2020" width="210" height="80" as="geometry" />
        </mxCell>
        <mxCell id="hAiypM93y2llB4UHlgx6-125" value="&lt;font style=&quot;font-size: 16px;&quot;&gt;«Anticorruption Layer»&lt;br style=&quot;&quot;&gt;&lt;b&gt;Customer Management Adapter&lt;/b&gt;&lt;/font&gt;" style="html=1;dropTarget=0;whiteSpace=wrap;fontSize=9;rounded=1;align=center;verticalAlign=middle;fontFamily=Helvetica;fillColor=#F7F7F7;strokeColor=#36393d;strokeWidth=2;fontColor=#000000;shadow=1;dashed=1;gradientColor=none;" vertex="1" parent="1">
          <mxGeometry x="9270" y="2113" width="210" height="80" as="geometry" />
        </mxCell>
        <mxCell id="hAiypM93y2llB4UHlgx6-127" value="" style="shape=cross;whiteSpace=wrap;html=1;fillColor=#a20025;strokeColor=#6F0000;rotation=45;fontColor=#ffffff;" vertex="1" parent="1">
          <mxGeometry x="9490" y="1887.25" width="125.5" height="125.5" as="geometry" />
        </mxCell>
        <mxCell id="hAiypM93y2llB4UHlgx6-134" value="&lt;b&gt;Customers&lt;/b&gt;&lt;div&gt;&lt;br&gt;&lt;/div&gt;" style="sketch=0;pointerEvents=1;shadow=0;dashed=0;html=1;strokeColor=none;labelPosition=center;verticalLabelPosition=top;verticalAlign=bottom;align=center;fillColor=#505050;shape=mxgraph.mscae.intune.user_group;fontSize=22;" vertex="1" parent="1">
          <mxGeometry x="12139.97" y="1682" width="202.57" height="149.9" as="geometry" />
        </mxCell>
        <object placeholders="1" c4Name="[Website] www.example.com/***" c4Type="ContainerDiagramTitle" c4Description="" label="&lt;font style=&quot;font-size: 29px;&quot;&gt;&lt;b style=&quot;font-size: 29px;&quot;&gt;&lt;div style=&quot;text-align: left; font-size: 29px;&quot;&gt;%c4Name%&lt;/div&gt;&lt;/b&gt;&lt;/font&gt;&lt;div style=&quot;text-align: left; font-size: 29px;&quot;&gt;%c4Description%&lt;/div&gt;" id="hAiypM93y2llB4UHlgx6-135">
          <mxCell style="text;html=1;strokeColor=none;fillColor=none;align=left;verticalAlign=top;whiteSpace=wrap;rounded=0;metaEdit=1;allowArrows=0;resizable=1;rotatable=0;connectable=0;recursiveResize=0;expand=0;pointerEvents=0;points=[[0.25,0,0],[0.5,0,0],[0.75,0,0],[1,0.25,0],[1,0.5,0],[1,0.75,0],[0.75,1,0],[0.5,1,0],[0.25,1,0],[0,0.75,0],[0,0.5,0],[0,0.25,0]];fontFamily=Helvetica;fontSize=29;fontColor=default;" vertex="1" parent="1">
            <mxGeometry x="12050" y="1862" width="537.18" height="40" as="geometry" />
          </mxCell>
        </object>
        <mxCell id="hAiypM93y2llB4UHlgx6-137" value="" style="rounded=1;whiteSpace=wrap;html=1;fillColor=none;strokeWidth=3;strokeColor=#99004D;" vertex="1" parent="1">
          <mxGeometry x="11672" y="2000" width="280" height="320" as="geometry" />
        </mxCell>
        <mxCell id="hAiypM93y2llB4UHlgx6-147" value="&lt;font color=&quot;#99004d&quot;&gt;Team Catalog&lt;/font&gt;" style="text;html=1;align=center;verticalAlign=middle;resizable=0;points=[];autosize=1;strokeColor=none;fillColor=none;fontStyle=1;fontSize=20;" vertex="1" parent="1">
          <mxGeometry x="11735" y="2360" width="150" height="40" as="geometry" />
        </mxCell>
        <mxCell id="hAiypM93y2llB4UHlgx6-148" value="&lt;font color=&quot;#009900&quot;&gt;Team Cart&lt;/font&gt;" style="text;html=1;align=center;verticalAlign=middle;resizable=0;points=[];autosize=1;strokeColor=none;fillColor=none;fontStyle=1;fontSize=20;" vertex="1" parent="1">
          <mxGeometry x="12067" y="2360" width="120" height="40" as="geometry" />
        </mxCell>
        <mxCell id="hAiypM93y2llB4UHlgx6-149" value="&lt;font color=&quot;#4c0099&quot;&gt;Team Payments&lt;/font&gt;" style="text;html=1;align=center;verticalAlign=middle;resizable=0;points=[];autosize=1;strokeColor=none;fillColor=none;fontStyle=1;fontSize=20;" vertex="1" parent="1">
          <mxGeometry x="12350.75" y="2360" width="170" height="40" as="geometry" />
        </mxCell>
        <mxCell id="hAiypM93y2llB4UHlgx6-150" value="&lt;font color=&quot;#ff8000&quot;&gt;Team Customer&lt;/font&gt;" style="text;html=1;align=center;verticalAlign=middle;resizable=0;points=[];autosize=1;strokeColor=none;fillColor=none;fontStyle=1;fontSize=20;" vertex="1" parent="1">
          <mxGeometry x="12672" y="2360" width="160" height="40" as="geometry" />
        </mxCell>
        <mxCell id="hAiypM93y2llB4UHlgx6-153" value="" style="sketch=0;pointerEvents=1;shadow=0;dashed=0;html=1;strokeColor=none;labelPosition=center;verticalLabelPosition=bottom;verticalAlign=top;outlineConnect=0;align=center;shape=mxgraph.office.users.users;fillColor=#009900;" vertex="1" parent="1">
          <mxGeometry x="12082" y="2411" width="90" height="80" as="geometry" />
        </mxCell>
        <mxCell id="hAiypM93y2llB4UHlgx6-155" value="" style="sketch=0;pointerEvents=1;shadow=0;dashed=0;html=1;strokeColor=none;labelPosition=center;verticalLabelPosition=bottom;verticalAlign=top;outlineConnect=0;align=center;shape=mxgraph.office.users.users;fillColor=#4C0099;" vertex="1" parent="1">
          <mxGeometry x="12390.75" y="2411" width="90" height="80" as="geometry" />
        </mxCell>
        <mxCell id="hAiypM93y2llB4UHlgx6-156" value="" style="sketch=0;pointerEvents=1;shadow=0;dashed=0;html=1;strokeColor=none;labelPosition=center;verticalLabelPosition=bottom;verticalAlign=top;outlineConnect=0;align=center;shape=mxgraph.office.users.users;fillColor=#FF8000;" vertex="1" parent="1">
          <mxGeometry x="12707" y="2411" width="90" height="80" as="geometry" />
        </mxCell>
        <mxCell id="hAiypM93y2llB4UHlgx6-157" value="" style="sketch=0;pointerEvents=1;shadow=0;dashed=0;html=1;strokeColor=none;labelPosition=center;verticalLabelPosition=bottom;verticalAlign=top;outlineConnect=0;align=center;shape=mxgraph.office.users.users;fillColor=#99004D;" vertex="1" parent="1">
          <mxGeometry x="11765" y="2411" width="90" height="80" as="geometry" />
        </mxCell>
        <mxCell id="hAiypM93y2llB4UHlgx6-158" value="&lt;span style=&quot;font-size: 20px;&quot;&gt;&lt;b&gt;&amp;nbsp; &amp;nbsp;Microservices&lt;/b&gt;&lt;/span&gt;" style="shape=cube;whiteSpace=wrap;html=1;boundedLbl=1;backgroundOutline=1;darkOpacity=0.05;darkOpacity2=0.1;align=left;verticalAlign=top;shadow=0;gradientColor=#FFFFFF;fillColor=#FFF2CC;gradientDirection=radial;strokeWidth=2;" vertex="1" parent="1">
          <mxGeometry x="8600" y="2294.5" width="1050" height="190.75" as="geometry" />
        </mxCell>
        <mxCell id="hAiypM93y2llB4UHlgx6-159" value="&lt;font style=&quot;font-size: 16px;&quot;&gt;«Microservice»&lt;br style=&quot;&quot;&gt;&lt;b&gt;Customer Management&lt;/b&gt;&lt;/font&gt;" style="html=1;dropTarget=0;whiteSpace=wrap;fontSize=9;rounded=1;align=center;verticalAlign=middle;fontFamily=Helvetica;fillColor=#f9f7ed;fontColor=default;strokeColor=#36393d;" vertex="1" parent="1">
          <mxGeometry x="9145" y="2361.89" width="210" height="80" as="geometry" />
        </mxCell>
        <mxCell id="hAiypM93y2llB4UHlgx6-160" value="&lt;font style=&quot;font-size: 16px;&quot;&gt;«Microservice»&lt;br style=&quot;&quot;&gt;&lt;b&gt;Cart Management&lt;/b&gt;&lt;/font&gt;" style="html=1;dropTarget=0;whiteSpace=wrap;fontSize=9;rounded=1;align=center;verticalAlign=middle;fontFamily=Helvetica;fillColor=#f9f7ed;fontColor=default;strokeColor=#36393d;shadow=1;" vertex="1" parent="1">
          <mxGeometry x="9385" y="2361.89" width="210" height="80" as="geometry" />
        </mxCell>
        <mxCell id="hAiypM93y2llB4UHlgx6-161" value="&lt;font style=&quot;font-size: 16px;&quot;&gt;«Microservice»&lt;br style=&quot;&quot;&gt;&lt;b&gt;Payment Management&lt;/b&gt;&lt;/font&gt;" style="html=1;dropTarget=0;whiteSpace=wrap;fontSize=9;rounded=1;align=center;verticalAlign=middle;fontFamily=Helvetica;fillColor=#f9f7ed;fontColor=default;strokeColor=#36393d;" vertex="1" parent="1">
          <mxGeometry x="8905" y="2361.89" width="210" height="80" as="geometry" />
        </mxCell>
        <mxCell id="hAiypM93y2llB4UHlgx6-162" value="&lt;font style=&quot;font-size: 16px;&quot;&gt;«Microservice»&lt;br style=&quot;&quot;&gt;&lt;b&gt;Catalog Product Management&lt;/b&gt;&lt;/font&gt;" style="html=1;dropTarget=0;whiteSpace=wrap;fontSize=9;rounded=1;align=center;verticalAlign=middle;fontFamily=Helvetica;fillColor=#f9f7ed;strokeColor=#36393d;" vertex="1" parent="1">
          <mxGeometry x="8670" y="2360.63" width="210" height="80" as="geometry" />
        </mxCell>
        <mxCell id="hAiypM93y2llB4UHlgx6-164" value="" style="sketch=0;html=1;aspect=fixed;strokeColor=none;shadow=0;align=center;fillColor=#2D9C5E;verticalAlign=top;labelPosition=center;verticalLabelPosition=bottom;shape=mxgraph.gcp2.check" vertex="1" parent="1">
          <mxGeometry x="11024.5" y="1967.5" width="137.5" height="110" as="geometry" />
        </mxCell>
        <mxCell id="hAiypM93y2llB4UHlgx6-169" value="" style="html=1;shadow=0;dashed=0;align=center;verticalAlign=middle;shape=mxgraph.arrows2.arrow;dy=0.57;dx=118.72;notch=15;fillColor=#ffff88;strokeColor=#36393d;strokeWidth=3;" vertex="1" parent="1">
          <mxGeometry x="9820" y="2100" width="210.36" height="230" as="geometry" />
        </mxCell>
        <mxCell id="hAiypM93y2llB4UHlgx6-170" value="" style="html=1;shadow=0;dashed=0;align=center;verticalAlign=middle;shape=mxgraph.arrows2.arrow;dy=0.57;dx=118.72;notch=15;fillColor=#ffff88;strokeColor=#36393d;strokeWidth=3;" vertex="1" parent="1">
          <mxGeometry x="6365" y="2052" width="210.36" height="230" as="geometry" />
        </mxCell>
        <mxCell id="hAiypM93y2llB4UHlgx6-171" value="&lt;font style=&quot;font-size: 29px;&quot;&gt;Pattern: Strangler Fig&lt;br&gt;Use Case: Microfrontends gradual transition to a Backend for Microfrontend&lt;/font&gt;" style="text;html=1;align=left;verticalAlign=middle;resizable=0;points=[];autosize=1;strokeColor=none;fillColor=none;fontStyle=1" vertex="1" parent="1">
          <mxGeometry x="11597.18" y="1440" width="990" height="80" as="geometry" />
        </mxCell>
        <mxCell id="hAiypM93y2llB4UHlgx6-174" value="&lt;span style=&quot;color: rgb(0, 0, 0); font-family: Helvetica; font-size: 29px; font-style: normal; font-variant-ligatures: normal; font-variant-caps: normal; font-weight: 700; letter-spacing: normal; orphans: 2; text-align: left; text-indent: 0px; text-transform: none; widows: 2; word-spacing: 0px; -webkit-text-stroke-width: 0px; white-space: nowrap; background-color: rgb(251, 251, 251); text-decoration-thickness: initial; text-decoration-style: initial; text-decoration-color: initial; display: inline !important; float: none;&quot;&gt;Backend for Microfrontend (BFMF)&lt;/span&gt;" style="text;whiteSpace=wrap;html=1;" vertex="1" parent="1">
          <mxGeometry x="12042" y="2540" width="410" height="60" as="geometry" />
        </mxCell>
        <mxCell id="hAiypM93y2llB4UHlgx6-182" value="&lt;b&gt;Customers&lt;/b&gt;&lt;div&gt;&lt;br&gt;&lt;/div&gt;" style="sketch=0;pointerEvents=1;shadow=0;dashed=0;html=1;strokeColor=none;labelPosition=center;verticalLabelPosition=top;verticalAlign=bottom;align=center;fillColor=#505050;shape=mxgraph.mscae.intune.user_group;fontSize=22;" vertex="1" parent="1">
          <mxGeometry x="10559.97" y="1780" width="202.57" height="149.9" as="geometry" />
        </mxCell>
        <object placeholders="1" c4Name="[Website] www.example.com/***" c4Type="ContainerDiagramTitle" c4Description="" label="&lt;font style=&quot;font-size: 29px;&quot;&gt;&lt;b style=&quot;font-size: 29px;&quot;&gt;&lt;div style=&quot;text-align: left; font-size: 29px;&quot;&gt;%c4Name%&lt;/div&gt;&lt;/b&gt;&lt;/font&gt;&lt;div style=&quot;text-align: left; font-size: 29px;&quot;&gt;%c4Description%&lt;/div&gt;" id="hAiypM93y2llB4UHlgx6-183">
          <mxCell style="text;html=1;strokeColor=none;fillColor=none;align=left;verticalAlign=top;whiteSpace=wrap;rounded=0;metaEdit=1;allowArrows=0;resizable=1;rotatable=0;connectable=0;recursiveResize=0;expand=0;pointerEvents=0;points=[[0.25,0,0],[0.5,0,0],[0.75,0,0],[1,0.25,0],[1,0.5,0],[1,0.75,0],[0.75,1,0],[0.5,1,0],[0.25,1,0],[0,0.75,0],[0,0.5,0],[0,0.25,0]];fontFamily=Helvetica;fontSize=29;fontColor=default;" vertex="1" parent="1">
            <mxGeometry x="10470" y="1960" width="537.18" height="40" as="geometry" />
          </mxCell>
        </object>
        <mxCell id="hAiypM93y2llB4UHlgx6-184" value="&lt;b&gt;Customers&lt;/b&gt;&lt;div&gt;&lt;br&gt;&lt;/div&gt;" style="sketch=0;pointerEvents=1;shadow=0;dashed=0;html=1;strokeColor=none;labelPosition=center;verticalLabelPosition=top;verticalAlign=bottom;align=center;fillColor=#505050;shape=mxgraph.mscae.intune.user_group;fontSize=22;" vertex="1" parent="1">
          <mxGeometry x="9032.789999999999" y="1690" width="202.57" height="149.9" as="geometry" />
        </mxCell>
        <object placeholders="1" c4Name="[Website] www.example.com/***" c4Type="ContainerDiagramTitle" c4Description="" label="&lt;font style=&quot;font-size: 29px;&quot;&gt;&lt;b style=&quot;font-size: 29px;&quot;&gt;&lt;div style=&quot;text-align: left; font-size: 29px;&quot;&gt;%c4Name%&lt;/div&gt;&lt;/b&gt;&lt;/font&gt;&lt;div style=&quot;text-align: left; font-size: 29px;&quot;&gt;%c4Description%&lt;/div&gt;" id="hAiypM93y2llB4UHlgx6-185">
          <mxCell style="text;html=1;strokeColor=none;fillColor=none;align=left;verticalAlign=top;whiteSpace=wrap;rounded=0;metaEdit=1;allowArrows=0;resizable=1;rotatable=0;connectable=0;recursiveResize=0;expand=0;pointerEvents=0;points=[[0.25,0,0],[0.5,0,0],[0.75,0,0],[1,0.25,0],[1,0.5,0],[1,0.75,0],[0.75,1,0],[0.5,1,0],[0.25,1,0],[0,0.75,0],[0,0.5,0],[0,0.25,0]];fontFamily=Helvetica;fontSize=29;fontColor=default;" vertex="1" parent="1">
            <mxGeometry x="8942.82" y="1870" width="537.18" height="40" as="geometry" />
          </mxCell>
        </object>
        <mxCell id="hAiypM93y2llB4UHlgx6-186" value="&lt;b&gt;Customers&lt;/b&gt;&lt;div&gt;&lt;br&gt;&lt;/div&gt;" style="sketch=0;pointerEvents=1;shadow=0;dashed=0;html=1;strokeColor=none;labelPosition=center;verticalLabelPosition=top;verticalAlign=bottom;align=center;fillColor=#505050;shape=mxgraph.mscae.intune.user_group;fontSize=22;" vertex="1" parent="1">
          <mxGeometry x="7283.789999999999" y="1667.25" width="202.57" height="149.9" as="geometry" />
        </mxCell>
        <object placeholders="1" c4Name="[Website] www.example.com/***" c4Type="ContainerDiagramTitle" c4Description="" label="&lt;font style=&quot;font-size: 29px;&quot;&gt;&lt;b style=&quot;font-size: 29px;&quot;&gt;&lt;div style=&quot;text-align: left; font-size: 29px;&quot;&gt;%c4Name%&lt;/div&gt;&lt;/b&gt;&lt;/font&gt;&lt;div style=&quot;text-align: left; font-size: 29px;&quot;&gt;%c4Description%&lt;/div&gt;" id="hAiypM93y2llB4UHlgx6-187">
          <mxCell style="text;html=1;strokeColor=none;fillColor=none;align=left;verticalAlign=top;whiteSpace=wrap;rounded=0;metaEdit=1;allowArrows=0;resizable=1;rotatable=0;connectable=0;recursiveResize=0;expand=0;pointerEvents=0;points=[[0.25,0,0],[0.5,0,0],[0.75,0,0],[1,0.25,0],[1,0.5,0],[1,0.75,0],[0.75,1,0],[0.5,1,0],[0.25,1,0],[0,0.75,0],[0,0.5,0],[0,0.25,0]];fontFamily=Helvetica;fontSize=29;fontColor=default;" vertex="1" parent="1">
            <mxGeometry x="7193.82" y="1847.25" width="537.18" height="40" as="geometry" />
          </mxCell>
        </object>
        <mxCell id="hAiypM93y2llB4UHlgx6-188" value="&lt;b&gt;Customers&lt;/b&gt;&lt;div&gt;&lt;br&gt;&lt;/div&gt;" style="sketch=0;pointerEvents=1;shadow=0;dashed=0;html=1;strokeColor=none;labelPosition=center;verticalLabelPosition=top;verticalAlign=bottom;align=center;fillColor=#505050;shape=mxgraph.mscae.intune.user_group;fontSize=22;" vertex="1" parent="1">
          <mxGeometry x="5799.969999999999" y="1560" width="202.57" height="149.9" as="geometry" />
        </mxCell>
        <object placeholders="1" c4Name="[Website] www.example.com/***" c4Type="ContainerDiagramTitle" c4Description="" label="&lt;font style=&quot;font-size: 29px;&quot;&gt;&lt;b style=&quot;font-size: 29px;&quot;&gt;&lt;div style=&quot;text-align: left; font-size: 29px;&quot;&gt;%c4Name%&lt;/div&gt;&lt;/b&gt;&lt;/font&gt;&lt;div style=&quot;text-align: left; font-size: 29px;&quot;&gt;%c4Description%&lt;/div&gt;" id="hAiypM93y2llB4UHlgx6-189">
          <mxCell style="text;html=1;strokeColor=none;fillColor=none;align=left;verticalAlign=top;whiteSpace=wrap;rounded=0;metaEdit=1;allowArrows=0;resizable=1;rotatable=0;connectable=0;recursiveResize=0;expand=0;pointerEvents=0;points=[[0.25,0,0],[0.5,0,0],[0.75,0,0],[1,0.25,0],[1,0.5,0],[1,0.75,0],[0.75,1,0],[0.5,1,0],[0.25,1,0],[0,0.75,0],[0,0.5,0],[0,0.25,0]];fontFamily=Helvetica;fontSize=29;fontColor=default;" vertex="1" parent="1">
            <mxGeometry x="5710" y="1740" width="537.18" height="40" as="geometry" />
          </mxCell>
        </object>
        <mxCell id="hAiypM93y2llB4UHlgx6-190" value="TO-BE" style="text;html=1;align=center;verticalAlign=middle;resizable=0;points=[];autosize=1;strokeColor=none;fillColor=none;fontSize=29;fontStyle=1" vertex="1" parent="1">
          <mxGeometry x="10172.5" y="1659.9" width="110" height="50" as="geometry" />
        </mxCell>
        <mxCell id="hAiypM93y2llB4UHlgx6-138" value="" style="rounded=1;whiteSpace=wrap;html=1;fillColor=none;strokeWidth=3;strokeColor=#009900;" vertex="1" parent="1">
          <mxGeometry x="11987" y="2000" width="280" height="320" as="geometry" />
        </mxCell>
        <mxCell id="hAiypM93y2llB4UHlgx6-140" value="" style="rounded=1;whiteSpace=wrap;html=1;fillColor=none;strokeWidth=3;strokeColor=#4C0099;" vertex="1" parent="1">
          <mxGeometry x="12295.75" y="2000" width="280" height="320" as="geometry" />
        </mxCell>
        <mxCell id="hAiypM93y2llB4UHlgx6-141" value="" style="rounded=1;whiteSpace=wrap;html=1;fillColor=none;strokeWidth=3;strokeColor=#FF8000;" vertex="1" parent="1">
          <mxGeometry x="12605" y="2000" width="280" height="320" as="geometry" />
        </mxCell>
      </root>
    </mxGraphModel>
  </diagram>
  <diagram id="_qfNOcBZVLhCizqSwsOW" name="Page-2">
    <mxGraphModel dx="865" dy="587" grid="1" gridSize="10" guides="1" tooltips="1" connect="1" arrows="1" fold="1" page="1" pageScale="1" pageWidth="827" pageHeight="1169" math="0" shadow="0">
      <root>
        <mxCell id="0" />
        <mxCell id="1" parent="0" />
        <mxCell id="RuAKkyge6B7I7nZthbsA-8" style="edgeStyle=orthogonalEdgeStyle;rounded=0;orthogonalLoop=1;jettySize=auto;html=1;" edge="1" parent="1" source="RuAKkyge6B7I7nZthbsA-2" target="RuAKkyge6B7I7nZthbsA-4">
          <mxGeometry relative="1" as="geometry" />
        </mxCell>
        <mxCell id="RuAKkyge6B7I7nZthbsA-2" value="Plain text" style="sketch=0;pointerEvents=1;shadow=0;dashed=0;html=1;strokeColor=#3A5431;fillColor=#6d8764;labelPosition=center;verticalLabelPosition=bottom;verticalAlign=top;align=center;outlineConnect=0;shape=mxgraph.veeam2.file;fontColor=#000000;" vertex="1" parent="1">
          <mxGeometry x="130" y="240" width="57.44" height="80" as="geometry" />
        </mxCell>
        <mxCell id="RuAKkyge6B7I7nZthbsA-11" style="edgeStyle=orthogonalEdgeStyle;rounded=0;orthogonalLoop=1;jettySize=auto;html=1;" edge="1" parent="1" source="RuAKkyge6B7I7nZthbsA-3" target="RuAKkyge6B7I7nZthbsA-5">
          <mxGeometry relative="1" as="geometry" />
        </mxCell>
        <mxCell id="RuAKkyge6B7I7nZthbsA-16" style="edgeStyle=orthogonalEdgeStyle;rounded=0;orthogonalLoop=1;jettySize=auto;html=1;entryX=1;entryY=0.5;entryDx=0;entryDy=0;dashed=1;" edge="1" parent="1" source="RuAKkyge6B7I7nZthbsA-3" target="RuAKkyge6B7I7nZthbsA-14">
          <mxGeometry relative="1" as="geometry">
            <Array as="points">
              <mxPoint x="520" y="140" />
            </Array>
          </mxGeometry>
        </mxCell>
        <mxCell id="RuAKkyge6B7I7nZthbsA-3" value="Private Key&lt;br&gt;&lt;b&gt;Decryption&lt;/b&gt;" style="sketch=0;pointerEvents=1;shadow=0;dashed=0;html=1;strokeColor=#432D57;labelPosition=center;verticalLabelPosition=bottom;verticalAlign=top;outlineConnect=0;align=center;shape=mxgraph.office.security.key_permissions;fillColor=#76608a;fontColor=#000000;" vertex="1" parent="1">
          <mxGeometry x="510" y="253.25" width="25" height="53" as="geometry" />
        </mxCell>
        <mxCell id="RuAKkyge6B7I7nZthbsA-9" style="edgeStyle=orthogonalEdgeStyle;rounded=0;orthogonalLoop=1;jettySize=auto;html=1;" edge="1" parent="1" source="RuAKkyge6B7I7nZthbsA-4" target="RuAKkyge6B7I7nZthbsA-7">
          <mxGeometry relative="1" as="geometry" />
        </mxCell>
        <mxCell id="RuAKkyge6B7I7nZthbsA-15" style="edgeStyle=orthogonalEdgeStyle;rounded=0;orthogonalLoop=1;jettySize=auto;html=1;entryX=0;entryY=0.5;entryDx=0;entryDy=0;dashed=1;" edge="1" parent="1" source="RuAKkyge6B7I7nZthbsA-4" target="RuAKkyge6B7I7nZthbsA-14">
          <mxGeometry relative="1" as="geometry">
            <Array as="points">
              <mxPoint x="282" y="140" />
            </Array>
          </mxGeometry>
        </mxCell>
        <mxCell id="RuAKkyge6B7I7nZthbsA-4" value="Public Key&lt;br&gt;&lt;b&gt;Encryption&lt;/b&gt;" style="sketch=0;pointerEvents=1;shadow=0;dashed=0;html=1;strokeColor=#3A5431;labelPosition=center;verticalLabelPosition=bottom;verticalAlign=top;outlineConnect=0;align=center;shape=mxgraph.office.security.key_permissions;fillColor=#6d8764;fontColor=#000000;" vertex="1" parent="1">
          <mxGeometry x="270" y="253.5" width="25" height="53" as="geometry" />
        </mxCell>
        <mxCell id="RuAKkyge6B7I7nZthbsA-5" value="&lt;span style=&quot;color: rgb(0, 0, 0);&quot;&gt;Plain text&lt;/span&gt;" style="sketch=0;pointerEvents=1;shadow=0;dashed=0;html=1;strokeColor=#432D57;fillColor=#76608a;labelPosition=center;verticalLabelPosition=bottom;verticalAlign=top;align=center;outlineConnect=0;shape=mxgraph.veeam2.file;fontColor=#ffffff;fontFamily=Helvetica;fontSize=12;" vertex="1" parent="1">
          <mxGeometry x="600" y="240" width="57.44" height="80" as="geometry" />
        </mxCell>
        <mxCell id="RuAKkyge6B7I7nZthbsA-10" style="edgeStyle=orthogonalEdgeStyle;rounded=0;orthogonalLoop=1;jettySize=auto;html=1;" edge="1" parent="1" source="RuAKkyge6B7I7nZthbsA-7" target="RuAKkyge6B7I7nZthbsA-3">
          <mxGeometry relative="1" as="geometry" />
        </mxCell>
        <mxCell id="RuAKkyge6B7I7nZthbsA-7" value="Cyphertext&lt;br&gt;(Encrypted)" style="sketch=0;pointerEvents=1;shadow=0;dashed=0;html=1;strokeColor=none;fillColor=#505050;labelPosition=center;verticalLabelPosition=bottom;verticalAlign=top;outlineConnect=0;align=center;shape=mxgraph.office.concepts.file_key;" vertex="1" parent="1">
          <mxGeometry x="365.36" y="241.75" width="69.28" height="76.5" as="geometry" />
        </mxCell>
        <mxCell id="RuAKkyge6B7I7nZthbsA-14" value="" style="image;html=1;image=img/lib/clip_art/general/Keys_128x128.png" vertex="1" parent="1">
          <mxGeometry x="354.64" y="100" width="80" height="80" as="geometry" />
        </mxCell>
        <mxCell id="RuAKkyge6B7I7nZthbsA-18" value="&amp;nbsp; 24 horas" style="html=1;verticalLabelPosition=middle;align=left;labelBackgroundColor=#ffffff;verticalAlign=middle;strokeWidth=2;strokeColor=#0080F0;shadow=0;dashed=0;shape=mxgraph.ios7.icons.stopwatch;labelPosition=right;" vertex="1" parent="1">
          <mxGeometry x="420" y="90" width="27" height="28.2" as="geometry" />
        </mxCell>
        <mxCell id="RuAKkyge6B7I7nZthbsA-22" value="&amp;nbsp; 30 dias" style="html=1;verticalLabelPosition=middle;align=left;labelBackgroundColor=#ffffff;verticalAlign=middle;strokeWidth=2;strokeColor=#0080F0;shadow=0;dashed=0;shape=mxgraph.ios7.icons.stopwatch;labelPosition=right;" vertex="1" parent="1">
          <mxGeometry x="560" y="90" width="27" height="28.2" as="geometry" />
        </mxCell>
        <mxCell id="RuAKkyge6B7I7nZthbsA-27" value="&amp;nbsp; 10 dias" style="html=1;verticalLabelPosition=middle;align=left;labelBackgroundColor=#ffffff;verticalAlign=middle;strokeWidth=2;strokeColor=#0080F0;shadow=0;dashed=0;shape=mxgraph.ios7.icons.stopwatch;labelPosition=right;" vertex="1" parent="1">
          <mxGeometry x="657.44" y="90" width="27" height="28.2" as="geometry" />
        </mxCell>
        <mxCell id="RuAKkyge6B7I7nZthbsA-30" value="&amp;nbsp; 1 dia" style="html=1;verticalLabelPosition=middle;align=left;labelBackgroundColor=#ffffff;verticalAlign=middle;strokeWidth=2;strokeColor=#0080F0;shadow=0;dashed=0;shape=mxgraph.ios7.icons.stopwatch;labelPosition=right;" vertex="1" parent="1">
          <mxGeometry x="760" y="90" width="27" height="28.2" as="geometry" />
        </mxCell>
        <mxCell id="RuAKkyge6B7I7nZthbsA-31" style="edgeStyle=orthogonalEdgeStyle;rounded=0;orthogonalLoop=1;jettySize=auto;html=1;entryX=0.509;entryY=-0.101;entryDx=0;entryDy=0;entryPerimeter=0;curved=1;" edge="1" parent="1" source="RuAKkyge6B7I7nZthbsA-22" target="RuAKkyge6B7I7nZthbsA-27">
          <mxGeometry relative="1" as="geometry">
            <Array as="points">
              <mxPoint x="573" y="20" />
              <mxPoint x="671" y="20" />
            </Array>
          </mxGeometry>
        </mxCell>
        <mxCell id="RuAKkyge6B7I7nZthbsA-34" style="edgeStyle=orthogonalEdgeStyle;rounded=0;orthogonalLoop=1;jettySize=auto;html=1;entryX=0.479;entryY=0.063;entryDx=0;entryDy=0;entryPerimeter=0;curved=1;exitX=0.495;exitY=-0.06;exitDx=0;exitDy=0;exitPerimeter=0;" edge="1" parent="1" source="RuAKkyge6B7I7nZthbsA-27" target="RuAKkyge6B7I7nZthbsA-30">
          <mxGeometry relative="1" as="geometry">
            <mxPoint x="584" y="100" as="sourcePoint" />
            <mxPoint x="681" y="97" as="targetPoint" />
            <Array as="points">
              <mxPoint x="671" y="20" />
              <mxPoint x="773" y="20" />
            </Array>
          </mxGeometry>
        </mxCell>
      </root>
    </mxGraphModel>
  </diagram>
</mxfile>
